<?xml version='1.0' encoding='utf-8'?>
<svg xmlns="http://www.w3.org/2000/svg" version="1.1" width="600px" height="976px" viewBox="0 0 600 976"> <g id="layer1"> <g style="fill:rgb(189,181,177); fill-opacity:1.0; stroke-linejoin: miter"> <path d="M307.55658,273.1508C308.9405,272.9943,306.99176,273.1591,304.91235,273.2936C301.14447,273.5883,300.33728,273.92776,302.5229,274.27933C303.50183,274.45706,308.24982,276.22684,309.5957,276.9185C310.97467,277.64224,313.87506,277.94852,315.55963,277.56082C318.1187,276.96243,318.6707,276.99036,322.37817,276.57495C322.69818,276.56436,325.69525,276.8279,326.9663,276.96793C328.23737,277.10806,331.62952,277.6332,334.50085,278.13528C339.26404,278.92886,342.3299,279.39493,354.23218,281.0702C356.48218,281.38806,361.2436,282.0841,364.83148,282.63843C371.97467,283.74768,381.6937,285.20148,386.52008,285.89642C388.21564,286.12653,391.6078,286.6518,394.02222,287.06427C396.43597,287.44427,400.7735,288.08295,403.64252,288.45477C406.51154,288.82672,409.96814,289.3183,411.30658,289.58734C416.88666,290.59418,421.1272,291.2669,424.5171,291.66217C426.5058,291.91962,430.38696,292.50128,433.1601,292.97244C435.9333,293.44363,438.96667,293.9102,439.84637,293.9921C440.75854,294.07364,444.28088,294.59647,447.67358,295.15433C451.09885,295.71146,455.045,296.29202,456.47928,296.4617C457.91348,296.63138,461.43576,297.15433,464.30655,297.6238C467.17728,298.0933,471.87418,298.82303,474.7438,299.22745C477.61343,299.632,483.77768,300.5634,488.44144,301.26123C493.10526,301.95898,498.38867,302.74353,500.1823,303.0044C501.97595,303.26526,505.85706,303.84692,508.82538,304.31458C511.7937,304.78235,516.71826,305.50818,519.7505,305.90967C522.81573,306.34314,526.338,306.8662,527.5783,307.10437C528.8511,307.34192,531.7869,307.8103,534.102,308.12695C536.449,308.41052,539.5149,308.8766,540.95013,309.11127C542.38556,309.3459,545.48444,309.84393,547.79956,310.16058C550.1477,310.50934,552.7891,310.8853,553.67,311.0323C554.5828,311.14606,556.24634,311.40936,557.4204,311.58368C558.5945,311.758,560.42065,312.01837,561.4972,312.1944C562.5732,312.33795,564.2043,312.60162,565.08453,312.71613C565.9979,312.8626,568.248,313.18048,570.07465,313.47333C571.9334,313.73297,573.4977,313.90033,573.5615,313.8343C573.6579,313.7674,573.6191,313.41034,573.5146,313.0218C573.34283,312.50446,572.9816,312.31573,571.8081,312.1739C570.9604,312.05878,567.927,311.59222,565.0563,311.12274C562.1849,310.6209,549.7908,308.72662,537.4955,306.89575C525.2007,305.0973,503.055,301.74988,488.2471,299.4756C473.4393,297.20145,453.6412,294.17007,444.2154,292.74368C398.22693,285.721,374.74347,282.1371,357.78308,279.54333C348.91125,278.17215,339.518,276.74515,336.9085,276.33597C323.17596,274.17276,315.334,273.3768,313.6472,273.6345L313.6472,273.6345 Z"/> </g> <g style="fill:rgb(189,181,177); fill-opacity:1.0; stroke-linejoin: miter"> <path d="M299.15723,275.2499C299.13513,275.83585,298.98907,278.60318,298.778,281.37186C298.567,284.1404,298.196,288.89603,297.9902,291.9573C297.78372,294.98587,297.54477,298.0153,297.49075,298.6343C297.40414,299.2539,297.27676,301.24023,297.21097,303.03052C297.07535,306.38318,297.0201,306.93713,296.59805,312.47437C296.43466,314.26624,296.14688,318.20715,295.90848,321.26904C295.66953,324.29846,295.32993,328.9884,295.1177,331.69202C294.90494,334.36304,294.67117,337.68494,294.59732,339.02002C294.49088,340.35535,294.3868,341.82104,294.32986,342.27747C294.27292,342.73376,294.16885,344.19934,294.0624,345.5349C293.98856,346.86987,293.75418,350.1593,293.54196,352.8629C293.3292,355.53406,292.98843,360.15894,292.74832,363.1233C292.54074,366.0869,292.2216,370.0935,292.0942,372.07996C291.93375,374.03442,291.74765,376.37964,291.69882,377.29138C291.61685,378.17102,291.41043,381.19983,291.19937,383.9685C290.9883,386.73703,290.7191,389.89694,290.6732,390.97116C290.5947,392.04587,290.27426,395.98752,289.9836,399.76584C289.69235,403.5117,289.27878,409.53668,289.08212,413.11823C288.853,416.70023,288.56924,420.8688,288.4338,422.40005C288.2983,423.9313,288.14194,426.11343,288.06522,427.28568C287.9884,428.45804,287.7541,431.7476,287.5122,434.6143C286.87848,442.8876,285.9331,455.59012,285.67487,459.36795C285.62537,460.24698,285.43707,462.4622,285.3062,464.25357C285.14288,466.04544,284.85504,469.98648,284.61664,473.04837C284.37775,476.07755,284.03815,480.76758,283.82593,483.4712C283.6131,486.1422,283.3794,489.46423,283.30548,490.79907C283.1991,492.13464,283.09503,493.60022,283.0381,494.05664C282.92535,495.03455,282.71594,497.90063,282.51184,501.05945C282.43622,502.29675,282.3014,503.8606,282.2473,504.4796C282.10437,505.588,281.9212,508.09583,280.80646,524.0868C280.52094,528.15784,280.1367,532.16547,279.95718,533.04694C279.56906,535.00543,278.9111,541.913,278.72543,546.1123C278.63986,548.61847,277.41708,564.0257,276.6312,572.8872C276.54807,573.70184,276.3149,577.05634,276.11362,580.37775C275.91238,583.69916,275.54147,588.4548,275.32578,590.96326C275.11008,593.4717,274.7717,598.22675,274.53793,601.54877C274.30417,604.8707,273.8303,611.1569,273.48557,615.5543C272.38846,628.87756,272.2836,632.1322,272.71292,636.158C273.25534,641.06006,274.1766,643.4833,276.3312,645.75446C277.29153,646.71326,278.87552,647.98627,279.86142,648.5542C281.63635,649.5961,285.9627,651.4385,287.63037,651.92926C288.38165,652.11115,288.34857,652.07916,287.3581,651.25104C284.3214,648.76776,283.6518,644.03064,284.8647,633.56775C285.09137,631.6771,285.38672,628.1589,285.53906,625.7491C285.69147,623.33936,285.87054,620.6038,285.92004,619.72473C286.0014,618.8125,286.53394,612.1674,287.12054,604.9034C287.7072,597.6392,288.2409,591.0592,288.32404,590.2445C288.40717,589.4298,288.7392,584.3171,289.09747,578.8461C289.60577,570.83527,291.37732,547.8719,292.00458,541.06244C292.0877,540.2478,292.4198,535.1351,292.778,529.664C293.13626,524.1931,293.89853,513.9984,294.49033,507.02698C295.04904,500.02368,295.7648,490.87073,296.08054,486.66895C296.96207,474.03262,297.6378,464.45743,297.80515,462.89322C297.85574,462.079,298.47495,454.81448,299.1127,446.76883C299.78244,438.6901,300.3679,431.361,300.44986,430.48123C300.66666,428.03787,301.3168,418.85355,301.74948,412.08002C302.1066,406.544,302.53043,401.1043,303.99667,382.92792C304.29092,379.34467,304.8113,372.01666,305.1713,366.64325C305.65744,359.2182,308.63257,321.5962,309.68585,309.47705C309.7365,308.6631,309.9668,305.14587,310.1977,301.6615C310.7235,292.8046,311.09558,288.11392,311.3838,286.02713C311.52905,285.0486,311.68726,282.96414,311.7896,281.40103L311.935,278.60098L310.69244,278.2327C310.0055,278.01712,309.31744,277.73672,309.12,277.61002C308.9552,277.48294,307.8421,277.07986,306.66394,276.6779C305.48584,276.2759,304.1753,275.74625,303.716,275.52676C303.2567,275.30716,302.6029,275.12357,302.24524,275.1299C301.88696,275.1038,301.2331,274.9202,300.77332,274.66812C299.49243,273.97537,299.13696,274.11172,299.15723,275.2499 Z"/> </g> <g style="fill:rgb(189,181,177); fill-opacity:1.0; stroke-linejoin: miter"> <path d="M318.7196,277.83C317.7464,277.97745,315.96198,278.23672,314.76056,278.35562L312.55286,278.59012L312.5927,280.83377C312.61407,282.0369,312.43262,284.64236,312.20654,286.56546C311.98047,288.48856,311.63684,292.95096,311.40594,296.43546C311.20764,299.91943,310.97845,303.5016,310.8971,304.41382C310.84766,305.29285,310.7151,306.9867,310.6383,308.15906C310.56158,309.33142,309.65576,320.60205,308.6441,333.24084C307.59995,345.8801,306.72263,356.92255,306.64127,357.83466C306.59177,358.7138,306.27835,363.0456,305.9987,367.4417C305.7189,371.83795,305.38565,376.88568,305.22232,378.67755C305.00784,381.25104,303.81125,396.3001,302.96072,407.01678C302.87875,407.89642,302.5978,412.2276,302.31808,416.6238C301.91104,423.0065,300.4778,441.21487,297.93723,472.1613C297.88773,473.0403,297.57437,477.3721,297.29465,481.7683C296.85733,488.2815,295.05954,511.60327,294.5154,517.59814C294.43228,518.4127,294.10025,523.5254,293.74194,528.9964C293.38373,534.46747,292.67322,543.9131,292.1634,550.00476C291.2,561.6993,290.30634,573.6528,290.05853,578.01587C289.78284,582.63965,289.15314,591.14056,288.352,600.97815C287.89276,606.2558,287.49615,611.4022,287.41595,612.37946C287.33575,613.35675,287.19916,614.8229,287.1485,615.63696C286.93457,618.2429,286.74854,620.58826,286.36646,626.5476C286.13098,629.77203,285.83563,633.2903,285.69208,634.3662C285.51605,635.44275,285.33923,638.30835,285.25183,640.7169C285.08167,647.6158,286.0645,649.8428,290.29962,652.0445C292.30167,653.0497,292.49728,653.0788,295.78104,652.9879C299.22726,652.89417,301.20444,652.5013,310.8536,650.0205C318.4304,648.06445,330.714,645.56934,338.07867,644.4953C348.88208,642.9048,350.56665,642.5171,372.73932,636.39844C378.0799,634.9049,385.23386,632.95636,388.6,632.0184C394.68558,630.34894,404.13907,627.8391,414.82413,625.07965C417.86807,624.31,422.8857,622.95233,425.99295,622.084C429.1002,621.21564,435.3152,619.51135,439.74982,618.2941C444.21704,617.0764,450.7555,615.26886,454.31622,614.2948C457.87695,613.32086,463.0578,611.9928,465.81073,611.3258C468.56372,610.65894,473.09708,609.50507,475.84775,608.70807C478.59903,607.9436,482.38687,606.93304,484.2648,606.4443C495.14328,603.5839,506.14886,600.55853,506.3736,600.3919C506.5014,600.2595,506.21356,598.7033,505.75903,596.9224C505.27258,595.17456,504.1541,590.8032,503.24518,587.24133C502.3687,583.6788,501.1109,578.7895,500.48285,576.39355C499.12396,571.31085,493.06955,552.7475,488.44363,539.52594C485.08426,529.85986,482.33798,521.74426,478.48813,510.10254C476.42514,503.82886,472.0331,490.96085,465.1757,471.1431L462.7074,464.0309L462.6393,460.19394C462.5804,456.8772,462.66757,456.29016,463.1484,455.89124C463.43704,455.65845,465.7679,455.03162,468.26303,454.4994L472.83237,453.54004L478.40848,454.3192C491.51675,456.13556,500.5302,458.15497,505.0888,460.25323C507.77832,461.50677,510.5583,464.1896,511.97308,466.92935C513.2863,469.44315,514.50946,472.3815,518.62415,482.457C520.3924,486.78427,522.70404,492.40305,523.7583,494.98654C524.8125,497.57004,526.44434,501.54193,527.3964,503.867C528.3479,506.1596,530.8285,512.13324,532.9335,517.10504C536.9066,526.53253,537.85864,528.8576,546.49963,550.2049L547.21423,551.98126L547.6804,547.0938C548.4727,538.58997,550.1052,524.2814,550.6881,520.4654C551.00995,518.44293,551.37726,515.3138,551.5731,513.5213C551.7365,511.7293,552.0707,508.56818,552.29443,506.51508C552.7995,501.98468,552.7972,501.85455,553.52313,495.1086C553.82825,492.14316,554.27466,487.97177,554.4967,485.8209C554.7512,483.66953,555.0034,481.38815,555.0575,480.76913C555.5574,475.94614,555.84155,473.63168,556.33887,470.5002C556.6614,468.51038,557.285,463.32727,557.7598,458.92773C558.2347,454.52808,558.8472,448.7273,559.1576,446.05457C559.4348,443.34973,559.93585,438.59183,560.2706,435.46317C560.8536,429.8256,561.7602,422.2631,562.78937,414.27554C563.10724,412.02545,563.417,409.32013,563.52795,408.2448C563.60645,407.16998,563.8018,405.34503,563.9436,404.17145C564.0853,402.998,564.394,400.22772,564.6144,397.97937C565.5542,388.62732,567.3524,372.65674,567.5883,371.2865C567.73645,370.4707,568.0793,367.79727,568.2967,365.38638C568.7948,360.4658,569.67,352.969,570.1006,349.7411C570.2749,348.5669,570.63525,345.0476,570.9701,341.91895C571.27234,338.79102,571.9733,332.46832,572.5103,327.90485C573.07983,323.34076,573.61334,318.58234,573.78595,317.31073C573.9266,316.07208,574.00507,314.99725,573.93945,314.966C573.84015,314.87018,564.4463,313.41058,560.0443,312.80573C558.3488,312.5755,556.58826,312.34662,552.0545,311.6463C550.9786,311.50287,549.2174,311.2414,548.10956,311.13104C547.0335,310.9875,543.57635,310.46332,540.44495,309.96594C537.31354,309.46863,532.58405,308.73938,529.877,308.33215C527.2025,307.92432,523.3864,307.34143,521.39655,307.01892C519.4397,306.7284,517.02704,306.41345,516.04926,306.30066C515.10394,306.18738,512.4619,305.7788,510.17822,305.3966C507.927,305.01367,504.01343,304.43274,501.50262,304.0869C498.99243,303.77368,495.86157,303.30884,494.5562,303.07178C493.251,302.83472,489.89127,302.30896,487.05472,301.9364C484.25082,301.5634,479.3588,300.83694,476.22733,300.33963C466.01767,298.73196,457.21194,297.42447,453.8865,296.99564C452.0934,296.76736,449.15823,296.33145,447.36346,296.00552C445.56866,295.6796,442.89417,295.27164,441.3949,295.10318C439.9281,294.9341,437.5805,294.61783,436.17773,294.3826C428.44635,293.12128,426.16315,292.77142,422.90277,292.34137C420.94653,292.08344,416.31464,291.35236,412.62805,290.7348C408.94153,290.11713,405.12537,289.5345,404.14752,289.4217C403.1703,289.34137,400.0069,288.87714,397.1361,288.40765C392.27545,287.61578,389.89478,287.26764,386.21106,286.81268C385.42834,286.69635,382.9821,286.31696,380.8284,285.9323C378.67477,285.5478,375.73956,285.11206,374.30536,284.94226C372.87115,284.77258,368.76178,284.16248,365.1739,283.60828C358.0307,282.49902,348.3442,281.04456,343.4858,280.3827C341.79037,280.1526,337.97424,279.56985,335.00543,279.0696C323.97992,277.31375,322.31866,277.18057,318.7196,277.83 Z"/> </g> <g style="fill:rgb(191,51,0); fill-opacity:1.0; stroke-linejoin: miter"> <path d="M147.0,336.0785C146.54767,336.24927,145.48389,336.78857,144.58197,337.29248C138.62695,340.8136,136.49518,341.66467,131.69708,342.563C128.90869,343.068,127.26361,343.8452,122.34213,346.95776C113.464355,352.58008,107.67572,358.14758,101.93732,366.54395C99.27457,370.46204,99.122375,371.05017,98.93402,378.76257C98.83786,382.505,98.86926,387.93652,99.01761,390.7964C99.165985,393.65613,99.31378,396.48352,99.32419,397.06885C99.34265,398.10938,99.34265,398.10938,100.63989,397.891C103.460815,397.38562,107.30231,399.39917,109.63623,402.61047C110.37009,403.6383,111.50339,405.17944,112.07062,405.98267C113.070404,407.33105,115.06859,411.78436,116.23653,415.27655L116.68352,416.63483L117.61784,416.1303C118.261826,415.76105,118.4843,415.46442,118.346725,415.044C118.03731,414.10614,117.17125,411.1291,116.368484,408.05304C115.74161,405.7224,115.55301,404.26184,115.49066,400.75C115.31955,387.44934,115.617615,385.91516,119.71185,380.18262C120.69623,378.83167,121.64578,377.35095,121.83276,376.8922C121.987274,376.4342,122.112335,374.31763,122.10675,372.17078C122.073425,368.46338,122.13385,368.20203,122.95508,366.8213C124.09448,365.04456,130.19788,358.8861,131.64795,358.11218C133.3877,357.1704,137.08714,356.68185,143.65501,356.5328C153.05199,356.33347,157.93828,356.73447,162.2246,358.15475C163.50084,358.58737,165.52556,359.0394,166.79723,359.21188C170.35027,359.6368,172.02538,360.55038,175.36967,363.87387C176.99193,365.4714,178.71861,367.4575,179.22142,368.29428L180.1259,369.7745L180.26884,368.666C180.4694,367.13364,180.6508,364.5283,180.84624,360.88168C181.11864,354.24118,178.9196,349.46603,173.50706,345.07346C169.38237,341.76376,158.88672,336.87585,154.38495,336.1427C151.31903,335.6765,148.3913,335.66357,147.0,336.0785 Z"/> </g> <g style="fill:rgb(255,193,169); fill-opacity:1.0; stroke-linejoin: miter"> <path d="M141.71562,357.21774C134.96295,357.9557,133.14722,358.28064,131.98694,358.88672C130.56946,359.66003,124.40448,366.0149,123.58615,367.55823C123.1767,368.3136,123.039,369.71472,122.964355,372.83875L122.87796,377.1339L121.29312,379.47156C120.43765,380.75525,119.32782,382.3689,118.8522,383.06042C117.456055,385.03687,116.81363,387.3252,116.493866,391.2992C116.04788,397.3247,115.99155,403.3108,116.371765,404.57263C116.54645,405.25256,116.930145,406.7096,117.24359,407.875C117.52449,409.04095,118.07942,410.98273,118.45961,412.24457C119.46269,415.60968,119.405136,416.0335,117.83031,417.10236C117.12358,417.60284,116.412796,417.87567,116.28041,417.74786C116.148056,417.62018,115.46712,415.90826,114.78209,413.9687C112.79735,408.44183,110.216156,404.12903,107.17145,401.19055C104.788635,398.89087,101.22806,398.0432,99.65781,399.3723C98.92087,400.00342,98.89011,400.10144,98.99405,405.9546C99.089905,411.35242,99.16879,412.13184,99.8497,413.84363C101.14255,417.04102,102.64508,419.2262,105.62305,422.06824C112.20772,428.3592,113.63005,431.52167,113.71626,440.04242C113.76015,442.51373,113.815445,447.45685,113.84642,451.03436C113.903946,456.10773,114.07039,458.154,114.56377,460.29205C116.18889,467.54938,117.57753,470.6474,121.78157,476.59027C127.95256,485.23065,130.67674,488.43512,134.83916,492.0368L138.60501,495.28772L140.75516,495.47717C143.10104,495.69568,150.90005,495.26453,153.94858,494.75513C155.73239,494.46326,158.67361,493.4026,161.51143,492.01855C162.73726,491.44385,171.41835,483.90588,172.75581,482.28833C173.58339,481.26526,173.58162,481.16772,173.71877,474.23694C173.93007,464.14954,173.87154,462.6869,173.0287,459.18872C172.60732,457.43982,172.24641,455.42944,172.23311,454.68152C172.20888,453.3158,172.65309,452.68994,175.05959,450.82568C176.8238,449.4281,180.71376,443.179,181.98341,439.5784C182.20003,438.95645,182.60487,437.94095,182.85402,437.3184C183.10316,436.69595,183.57674,434.0529,183.8882,431.4451C184.45485,426.71854,184.68318,424.92545,185.29909,421.1414C185.44264,420.06534,185.72218,417.49075,185.88094,415.43875C186.1443,411.95352,186.13509,411.43326,185.40486,408.77896C184.9858,407.15994,184.36296,405.0567,184.0205,404.0871C182.07054,398.6895,181.86638,396.35114,182.9962,392.20013C183.91112,388.7685,183.92766,386.03583,182.99944,383.22238C182.62096,382.05807,181.99236,379.62985,181.60118,377.7502C180.04338,370.62167,178.56175,367.7856,174.43077,364.11826C172.812,362.7158,171.12877,361.3469,170.66948,361.1274C170.20964,360.87534,168.47813,360.45065,166.84654,360.1544C165.18175,359.82614,162.73198,359.25168,161.39067,358.82016C157.7924,357.6805,146.09795,356.71713,141.71562,357.21774 Z"/> </g> <g style="fill:rgb(79,116,85); fill-opacity:1.0; stroke-linejoin: miter"> <path d="M111.708145,447.8521C110.84978,448.97333,105.29767,458.7002,105.304016,459.05786C105.305176,459.12292,104.73602,460.0437,104.071655,461.09644L102.80444,463.0056L102.82834,468.0144L102.81966,473.02362L105.760544,481.10345C108.66884,489.18378,111.70894,497.3593,114.06065,503.4001C114.74272,505.17706,115.39235,506.95453,115.49739,507.37555C115.60185,507.76398,115.80449,508.1833,115.968796,508.2779C116.75786,508.7519,122.04817,504.42926,122.02852,503.32367C122.01756,502.70587,125.97154,494.5688,127.739365,491.54486L129.63383,488.32355L128.47148,486.97797C125.94533,483.9328,119.40971,474.9085,117.76726,472.1729C116.45921,469.9516,115.26457,466.78522,114.21687,462.73785C113.48146,459.79083,113.25575,458.07086,113.0327,452.83783L112.72557,446.53302L111.708145,447.8521 Z"/> </g> <g style="fill:rgb(73,111,79); fill-opacity:1.0; stroke-linejoin: miter"> <path d="M173.5967,458.20288C173.59962,458.36548,173.84346,459.27197,174.15334,460.2423C174.63515,461.72998,174.72334,463.02954,174.63966,469.30884C174.58119,473.34326,174.48439,477.05322,174.42921,477.60706C174.37337,478.12854,174.31746,480.47156,174.32649,482.81348C174.36745,485.1222,174.22084,487.85706,174.0431,488.83594C173.834,489.88074,172.6183,492.86218,171.08095,496.04468C169.60518,499.03088,167.69557,503.2284,166.79066,505.39124C165.88576,507.5542,163.82161,512.2097,162.19307,515.7516C160.59645,519.2604,159.12704,522.6044,158.90866,523.12866C158.53635,524.14355,158.32474,526.87964,158.16794,532.70496L158.07175,536.4474L158.61093,533.8356C158.8776,532.36707,159.46652,530.7302,159.91025,530.0718C160.8603,528.6238,165.82912,522.68054,170.99416,516.7988C175.45766,511.71045,175.55287,511.5786,177.20406,507.48328C179.16664,502.6018,179.1103,503.0907,177.95137,501.9403L176.92488,500.91772L176.99782,497.69617C177.03108,495.9065,177.35542,492.1925,177.72908,489.42114C178.33339,484.9867,178.3987,483.16382,178.24684,474.61182C178.09566,464.27075,178.09511,464.23828,176.38014,461.08093C176.1119,460.63037,175.9059,460.016,175.90126,459.75586C175.89607,459.46313,175.49654,458.94983,175.03499,458.60022C174.11177,457.90112,173.58864,457.74768,173.5967,458.20288 Z"/> </g> <g style="fill:rgb(189,181,177); fill-opacity:1.0; stroke-linejoin: miter"> <path d="M467.79318,455.5161C465.65457,455.97693,463.7772,456.49817,463.64944,456.6305C463.48972,456.79602,463.38852,458.42404,463.42087,460.2451C463.4769,463.39938,463.54883,463.78827,465.36172,468.79776C466.38858,471.6746,467.7952,475.78067,468.4836,477.9152C469.1721,480.04984,471.40237,486.58084,473.45847,492.46426C475.514,498.3153,478.29514,506.56042,479.6378,510.7328C480.9805,514.9049,484.10464,524.15234,486.57297,531.26465C490.4821,542.5799,495.4957,557.48596,499.41858,569.5817C500.55457,573.107,501.42352,576.24677,504.29437,587.7106C506.49768,596.38885,507.81647,601.0494,508.9079,603.89246C509.45526,605.41156,510.45258,608.45135,511.11023,610.68414C511.76788,612.9169,513.3206,617.9311,514.56116,621.8449C515.80164,625.7587,517.28534,630.54645,517.8409,632.5208C518.4283,634.46204,519.4597,637.5988,520.1111,639.4739C520.7949,641.3482,521.7574,644.25867,522.2426,645.94147C523.0733,648.75665,524.10944,652.1536,526.8656,660.8221C527.3833,662.5044,528.1262,665.874,528.4616,668.27515C529.0164,672.0385,529.0674,673.0784,528.7838,675.4255C528.356,678.816,527.7602,680.0626,524.89484,683.5614C520.5654,688.87524,518.31464,690.34644,513.19073,691.21796C510.20728,691.7264,503.11786,691.8197,498.13406,691.4203C496.79855,691.3139,492.0117,691.00867,485.43448,690.6376C484.09958,690.56366,481.2996,690.4182,479.24814,690.292C477.19662,690.1658,474.3311,689.98895,472.8986,689.9169C471.46548,689.8122,468.24115,689.57666,465.73267,689.361C463.22418,689.1453,458.59924,688.8046,455.47296,688.5999C449.15533,688.1916,448.82965,688.16486,436.58698,687.4715C426.26517,686.87415,425.51614,686.8224,417.27768,686.3181C413.69614,686.1215,410.73422,686.0114,410.6378,686.07825C410.5745,686.17694,411.65042,686.3205,413.051,686.4257C414.45102,686.4984,417.22018,686.742,419.1758,686.96747C421.16397,687.1924,424.81345,687.5505,427.32248,687.79865C434.36005,688.45435,440.48593,689.06116,441.26868,689.17737C441.66003,689.2355,443.9077,689.4232,446.21997,689.5774C450.03027,689.83496,465.6709,691.3788,475.3835,692.4749C477.4368,692.69867,480.9556,693.02655,483.20273,693.1818C487.17563,693.4366,497.34232,694.4594,507.96716,695.6369C511.97607,696.0862,514.4828,696.2043,517.8954,696.04614C522.73816,695.8301,523.32056,695.65704,529.12573,692.8542C533.80206,690.59186,548.9679,683.71936,558.42505,679.583C560.2972,678.7691,564.718,676.7715,568.2347,675.1477C574.2036,672.40704,574.81506,672.0384,576.6362,670.1845C578.8401,667.901,582.4373,661.65686,582.56757,659.833C582.69836,658.0416,581.8957,654.96576,579.53076,648.177C572.12885,627.0029,569.14453,618.30597,567.6266,613.4212C566.69434,610.3802,564.83966,604.8509,563.5376,601.1333C550.78467,564.3759,548.1086,556.5517,548.0941,555.7388C548.0884,555.41364,547.7841,554.76843,547.4184,554.3196C547.0526,553.87067,546.7519,553.4206,546.7496,553.2905C546.74725,553.16046,545.8277,550.83484,544.73926,548.1545C543.6183,545.47455,540.9647,538.91864,538.78845,533.59015C536.6446,528.26117,533.78955,521.351,532.46594,518.2518C529.75195,511.9571,528.3912,508.59845,521.1144,490.8049C510.98077,466.0037,510.77814,465.58438,507.77234,463.003C505.39417,460.96356,500.41748,459.13275,493.33292,457.6646C488.46884,456.67773,474.15158,454.55737,472.75394,454.61475C472.13608,454.62573,469.89932,455.0558,467.79318,455.5161 Z"/> </g> <g style="fill:rgb(79,116,85); fill-opacity:1.0; stroke-linejoin: miter"> <path d="M101.04025,464.40308C100.46646,465.06372,97.79239,466.51,96.33661,466.95862C95.88367,467.0968,93.13876,468.219,90.19989,469.40955C83.64501,472.1281,77.16391,475.33337,74.20697,477.33752C71.76453,479.00732,71.0549,479.3452,66.76013,481.1129C61.40036,483.35486,48.831757,489.9535,47.58554,491.21167C46.05182,492.7677,44.943756,494.47888,42.99524,498.3191C42.147312,500.0257,39.691807,504.62323,37.54874,508.49945C35.405704,512.3758,33.515873,515.85736,33.32712,516.21844C33.13837,516.5795,31.878666,518.91144,30.491215,521.3757C27.625095,526.6635,26.976871,528.62665,26.60593,533.38226C26.186127,539.0495,25.47055,540.8837,20.696716,548.645C17.377075,554.0385,16.498934,555.87573,15.743715,559.14185C15.41147,560.579,14.35129,564.989,13.413118,568.9416C10.354615,581.7142,9.195588,587.88245,8.358643,595.7039C8.106964,598.0178,7.651947,601.70154,7.364868,603.85345C7.0453186,606.006,6.6716614,608.77747,6.4990845,610.04913C6.325897,611.2882,6.0086365,613.5708,5.775635,615.1037C5.542633,616.63666,5.2265015,618.98425,5.055084,620.321C4.6546936,623.41815,3.4161682,628.7747,2.5774841,631.00146C1.9867859,632.5408,1.958313,632.769,2.4256897,633.4437C3.593811,635.11444,9.892792,641.8009,9.586273,641.02563C8.632477,638.603,8.201874,636.3337,8.106964,632.82245C7.973816,628.9866,8.0034485,628.82336,8.975098,626.7569C10.291748,623.9686,11.3428955,622.71387,14.89859,619.6257C16.532166,618.198,19.28479,615.677,21.044373,614.0194C23.827728,611.4003,28.373596,607.2862,31.96069,604.13226C34.011196,602.3719,38.64517,599.5573,40.617794,598.9043C42.363888,598.3203,43.95608,598.2269,54.42495,597.9435L66.291466,597.60266L69.23937,598.75385C70.87737,599.40784,72.45034,600.063,72.74645,600.2529C73.501854,600.66235,73.66442,600.6595,73.654594,600.1067C73.64999,599.84656,74.118706,598.7648,74.71804,597.71326C76.57943,594.45996,78.03402,588.44904,79.264824,578.9942C79.6675,576.02704,80.15737,572.4728,80.32763,571.0711C80.84771,567.3862,80.313774,564.7935,77.63055,558.40063C76.40856,555.5274,75.416466,552.78015,75.40838,552.32495C75.40032,551.8697,75.61346,551.05273,75.896324,550.49475C76.46029,549.2811,77.17159,549.04083,76.83355,550.1528C76.189354,552.34357,76.333855,553.15424,78.30129,557.7057C80.84634,563.64557,81.227684,564.9725,81.31161,567.86597C81.39263,570.5968,79.62197,584.4525,78.65472,588.60065C77.53472,593.3045,76.55016,596.47723,75.75802,597.6623C74.808495,599.1429,74.50005,600.0917,74.928,600.37683C75.12481,600.4709,76.92135,600.8944,78.94494,601.2813C80.96853,601.6683,83.87585,602.36475,85.41166,602.76025C88.41941,603.6176,130.42874,610.02783,135.90146,610.48364C143.85017,611.1555,156.46686,610.9315,157.75372,610.12805C158.26819,609.7936,157.86389,605.3445,156.45038,595.3511C155.37234,587.75885,155.27762,582.426,155.78201,561.37164C155.80722,559.1268,155.92184,556.425,155.96786,555.3507C156.01382,554.2765,156.13486,551.9324,156.20065,550.14215C156.37473,545.2925,156.57828,542.10114,156.69223,541.18835C156.74918,540.73193,156.88461,539.20074,156.95676,537.7682C157.0289,536.3358,157.28592,532.4929,157.52084,529.23596C158.022,522.6565,158.20657,523.8893,155.76773,518.4354C155.25919,517.27344,154.20724,514.82007,153.42593,512.9474C150.91165,506.9093,149.37772,504.78967,145.79178,502.51135C145.0015,501.9724,142.52695,499.99963,140.34561,498.0542C131.29265,490.14813,130.2028,489.22418,130.10704,489.32355C128.92815,490.71063,122.98845,502.42828,123.00462,503.33893C123.02022,504.21686,120.56142,506.79767,118.46977,508.07086C115.92799,509.64484,115.504105,509.58722,114.788925,507.7785C114.55034,507.1646,113.7307,504.96722,112.913864,502.93256C111.34532,498.86188,109.228806,493.2398,104.95625,481.60565L102.15413,474.0114L102.12796,468.87256C102.11081,466.07556,102.00479,463.76782,101.84219,463.77075C101.71213,463.77307,101.32712,464.07263,101.04025,464.40308 Z"/> </g> <g style="fill:rgb(79,116,85); fill-opacity:1.0; stroke-linejoin: miter"> <path d="M179.19038,474.62756C179.21309,479.5714,179.14345,484.80957,178.97438,486.27637C178.83717,487.70996,178.6454,489.73022,178.53261,490.7079C178.45235,491.6853,178.19203,493.51135,177.95326,494.71912C177.71504,495.95947,177.55061,497.68628,177.56618,498.5642C177.59047,499.92993,177.7599,500.31738,178.78816,501.4375L180.01497,502.7494L179.51607,503.9618C179.26747,504.6167,178.52003,506.48413,177.89851,508.12158C176.31111,512.15063,175.89821,512.7108,171.05025,518.1315C168.68965,520.74304,166.07692,523.8146,165.21803,524.9033C164.35963,526.02454,162.99025,527.6752,162.16158,528.6332C160.66267,530.3187,159.62259,532.19116,159.6387,533.1017C159.64334,533.3618,159.13907,536.10315,158.4791,539.23755C157.3724,544.6893,157.17941,546.64435,156.90219,554.84625C156.84097,556.89655,156.74844,559.0125,156.69327,559.56647C156.63742,560.0879,156.51035,565.74994,156.3953,572.09485C156.21988,584.1983,156.40402,589.07416,157.32263,595.0104C157.61737,596.9568,158.07684,600.8519,158.3211,603.6124C158.56525,606.3729,158.87158,608.96967,158.97552,609.3256L159.21521,610.00446L164.20386,608.84247C166.95746,608.20807,171.32648,606.95953,173.91284,606.0679C186.81335,601.6753,189.1831,601.4055,200.40134,603.0278C204.8364,603.6646,208.6548,604.37756,209.73598,604.81366C210.7184,605.1866,213.54372,606.7628,215.9789,608.34595C218.381,609.8971,222.16322,612.23706,224.33241,613.49963C226.50221,614.79474,228.77309,616.2832,229.33565,616.8262C229.99641,617.39996,231.503,619.81274,233.11983,622.9392L235.81361,628.0959L235.49806,619.4816C235.31612,614.7358,235.08852,609.2427,234.95631,607.2934C234.82356,605.3115,234.87086,602.48083,235.0063,600.9496C235.17433,599.4178,235.58296,594.9543,235.96834,591.0116C236.35365,587.0689,236.79604,582.6698,236.96571,581.2356C237.33125,578.00885,237.34859,578.9844,236.7723,570.34235C236.14491,560.6602,235.58131,541.73914,235.90651,541.7334C236.36171,541.7253,236.57796,544.7465,237.0052,557.815C237.46303,572.60693,237.84804,577.8045,238.4659,577.7935C239.14876,577.78143,252.40527,589.77637,254.00308,591.8297C255.10214,593.274,255.16776,593.30536,255.74265,592.70966C256.50925,591.91534,260.34628,591.8472,264.32663,592.5247C265.92526,592.78906,267.81583,593.0157,268.53122,593.003C269.99448,592.97705,274.5175,591.2378,274.5077,590.68506C274.5042,590.4899,274.60425,588.79675,274.7659,586.9072C274.89493,585.0183,275.2618,580.0351,275.54507,575.834C275.82828,571.6329,276.25497,566.35583,276.47525,564.10754C276.66312,561.85986,276.93918,559.0901,277.01596,557.9177C277.09268,556.74536,277.28165,554.5627,277.41708,553.0315C277.55252,551.50024,277.73337,548.8623,277.80087,547.1697C277.94638,544.3697,278.04868,542.8065,278.61264,536.0959C278.68936,534.9235,278.83408,533.91254,278.89798,533.8464C278.96182,533.7801,277.87607,533.0839,276.46335,532.2957C275.08322,531.507,273.1776,530.43494,272.28925,529.86536C271.3684,529.29614,270.2849,528.72986,269.85992,528.6073C269.04236,528.3616,269.04236,528.3616,269.78888,524.60767C270.17578,522.5841,270.17578,522.5841,269.06403,520.42456C267.14355,516.6853,261.239,508.3982,258.48926,505.58447C255.8388,502.8667,247.71191,495.8224,242.9625,492.13348C241.54404,491.02032,238.50626,488.472,236.22672,486.4958C233.94731,484.51947,231.43846,482.44977,230.61626,481.9439C228.97075,480.86725,225.73369,479.91632,219.98808,478.7497C216.55992,478.02997,215.61516,477.94916,212.36687,478.20197C205.9987,478.60785,204.55809,478.08038,197.3358,472.5163C194.63182,470.45,191.79836,468.4187,191.07668,468.07373C189.46889,467.28906,186.69276,466.65527,182.84706,466.2356C181.31526,466.06763,179.84798,465.86597,179.58669,465.80566C179.1617,465.68298,179.11684,466.82227,179.19038,474.62756 Z"/> </g> <g style="fill:rgb(171,239,182); fill-opacity:1.0; stroke-linejoin: miter"> <path d="M171.30623,484.91626C162.86488,493.13293,159.03055,495.1853,150.16653,496.09082C147.53671,496.3651,144.22165,496.5216,142.59348,496.4204L139.66287,496.24475L141.81119,498.1582C142.96835,499.21118,144.74966,500.61072,145.73734,501.27637C150.01651,504.1278,151.9841,506.8578,154.70615,513.60767C155.45505,515.48096,156.37228,517.6765,156.71127,518.4512C157.08286,519.2252,157.59085,520.35474,157.86191,520.9679L158.33627,522.03284L161.81111,514.3922C165.34755,506.55542,166.2867,504.4895,167.56398,501.31165C167.96931,500.3285,168.68953,498.75452,169.19417,497.8672C171.02132,494.51697,172.86366,490.19055,173.1291,488.6571C173.4551,486.8623,173.58894,483.41187,173.35732,483.18848C173.29115,483.1245,172.36134,483.88916,171.30623,484.91626 Z"/> </g> <g style="fill:rgb(255,193,169); fill-opacity:1.0; stroke-linejoin: miter"> <path d="M271.9467,593.00745C269.8492,593.95544,267.86685,594.0557,264.47232,593.4004C263.1345,593.16394,260.82114,592.9447,259.32474,592.9388L256.62466,592.9217L255.76633,594.04285C254.33597,595.92236,253.73666,596.9738,250.15604,604.161C248.36557,607.7383,247.41681,612.9271,246.95544,621.7503C246.53143,629.0115,246.61432,630.0183,248.15485,636.17126C248.43573,637.3373,248.68765,638.6989,248.69748,639.2517C248.78189,642.1777,251.22263,645.90753,253.81345,647.0976C255.55191,647.9125,258.77286,647.9528,259.83206,647.1534C260.63516,646.5861,260.795,644.5991,260.03964,644.18964C258.72507,643.4324,258.7164,642.94464,259.87912,629.65265C260.47037,622.64874,261.05698,615.38464,261.18607,613.4957C261.36636,610.82526,261.63535,609.4869,262.41245,607.4563C263.96732,603.4278,266.25333,598.44305,266.57852,598.43726C267.06625,598.4286,266.85593,599.4082,265.94638,601.3109C262.8729,607.7409,262.04745,610.7156,261.7966,616.7376C261.72903,618.4303,261.22385,624.78217,260.68027,630.80945C260.16928,636.8361,259.8076,642.112,259.94516,642.5324C260.189,643.4389,261.76883,644.48425,264.32425,645.51227C265.73233,646.0402,266.84195,646.2483,268.6304,646.2165L271.00418,646.1744L272.21616,644.81915C273.42813,643.46405,273.42758,643.4315,272.98288,642.20337C272.02676,639.6507,271.63235,635.75433,271.75314,629.73456C271.7935,626.5137,271.90005,623.3565,271.98666,622.737C272.04074,622.118,272.28372,619.3163,272.5273,616.5471C272.73837,613.7785,273.01157,610.8462,273.06216,610.0321C273.168,608.66406,273.79483,600.0006,274.1519,594.46454C274.22635,593.1621,274.17538,592.12213,274.0134,592.15753C273.85135,592.19293,272.9147,592.5674,271.9467,593.00745 Z"/> </g> <g style="fill:rgb(255,193,169); fill-opacity:1.0; stroke-linejoin: miter"> <path d="M65.49294,598.43005L55.18554,598.6456C48.747704,598.7924,44.03497,599.00616,42.73892,599.2895C37.779934,600.28827,35.53201,601.922,20.903717,615.25793C12.869446,622.58923,10.921112,624.60803,9.853638,626.7738C9.067841,628.3165,8.949921,629.0017,8.908356,632.15765C8.837769,635.5092,8.912018,636.0284,9.978394,639.29474C10.598328,641.2354,11.313538,643.04425,11.546356,643.3328C11.944641,643.7811,14.702118,645.196,17.061249,646.16235C18.634216,646.8175,24.478455,648.0474,27.183167,648.32465C27.838913,648.38446,29.273815,648.41296,31.3333,648.41296C34.901688,648.41296,40.345146,648.32733,46.859646,648.1704C68.936,647.6158,87.926094,647.27844,102.30225,647.2184C117.7189,647.1398,122.13376,646.6385,134.9302,643.71155C139.80882,642.59357,140.98367,642.33844,143.4811,642.33844C144.1346,642.33844,144.87865,642.3559,145.8033,642.37994C148.30879,642.433,150.88062,642.55,151.49957,642.60406C154.8492,642.93567,157.51411,643.10315,159.678,643.10315C161.11366,643.10315,162.3288,643.0294,163.37701,642.88104C165.21062,642.6443,166.40756,642.47015,167.53821,642.47015C170.00967,642.47015,172.1643,643.3023,179.9588,646.1322C181.89001,646.8135,184.8316,647.60693,186.49573,647.9027L189.56165,648.3687L193.09038,647.4278C195.03336,646.93787,196.97745,646.513,197.36765,646.5061C198.2781,646.4899,202.97006,645.10547,203.38644,644.7403C203.70645,644.4419,201.24777,639.7039,199.884,638.0042C199.38522,637.395,197.85129,635.27545,196.48288,633.31555C192.97905,628.33606,189.12451,623.75305,187.84308,623.02765C186.66217,622.3666,181.2377,620.1271,180.83253,620.1271L180.83069,620.1271C180.66809,620.12994,181.10065,620.67523,181.76251,621.3141C182.39246,621.98596,183.82532,623.9122,184.92847,625.584C188.17157,630.5357,189.7757,632.94684,191.30896,635.0338C195.11069,640.30084,195.37949,640.78394,195.40085,641.9871C195.42624,643.41785,194.50974,644.9304,192.77922,646.39246C191.70709,647.2754,191.28279,647.4229,189.78314,647.4229C189.75821,647.4229,189.73299,647.42285,189.70746,647.4228C189.65897,647.42365,189.61026,647.4241,189.56143,647.4241C188.49701,647.4241,187.36584,647.221,186.73798,646.89C185.16211,646.07227,180.16656,641.3469,176.87805,637.50195C174.85297,635.1959,173.09949,633.53564,170.85944,631.94904C166.60925,628.90186,162.91364,625.94244,162.90784,625.61725C162.90468,625.4392,162.9651,625.34375,163.11113,625.34375C163.47188,625.34375,164.35506,625.9262,166.09259,627.28467C167.51111,628.3979,169.71918,630.0176,170.97156,630.9387C173.40906,632.6519,175.46149,634.6647,180.07324,639.75476C184.57167,644.7288,187.13626,646.64703,189.39508,646.64703C189.41873,646.64703,189.44235,646.64685,189.46594,646.6464C190.96173,646.6199,192.18584,645.9476,193.46056,644.4612C194.89438,642.7768,194.80399,641.34717,193.1046,639.06793C190.70618,635.89026,187.40033,631.0698,183.52039,625.056C182.58331,623.5764,181.38556,622.0689,180.8584,621.6879C178.09438,619.6906,176.78584,617.8833,177.754,617.8822L177.75577,617.8822C178.03432,617.8825,178.50027,618.03156,179.17303,618.3675C179.6654,618.61896,181.73016,619.4931,183.76123,620.30273C185.75928,621.08044,187.85828,622.0516,188.4505,622.4314C189.79932,623.28564,194.18454,628.4447,196.8215,632.23615C197.95596,633.84235,199.5903,636.1228,200.45651,637.27844C202.82303,640.48914,207.23697,649.0957,207.26358,650.5915C207.27567,651.27435,208.4316,652.2622,210.20375,653.1415C211.15048,653.6104,212.12283,653.8354,213.04996,653.8354C214.8545,653.8354,216.48766,652.98315,217.42683,651.4194C218.3113,649.93994,217.98927,648.28674,215.55867,641.46655C213.23085,634.9373,212.99342,634.38855,210.2502,630.111C209.07918,628.27783,208.14095,626.7331,208.13979,626.6681C208.13521,626.4079,205.38681,621.8378,204.28427,620.1985C202.8154,618.07776,198.08804,613.803,194.63101,611.45734C193.51273,610.7295,193.20941,610.1496,193.95581,610.1357L193.95775,610.1357C194.67479,610.1569,197.3121,612.127,202.89041,616.80786C207.81003,620.91656,208.67104,621.77954,210.74141,624.80035C212.04305,626.6638,214.15633,630.2694,215.47072,632.84827C221.30232,644.3571,222.81868,647.32275,223.76558,649.35516C224.90756,651.76465,225.68875,652.6886,226.691,652.6886C226.8158,652.6886,226.94402,652.6743,227.0768,652.6467C231.74196,651.5881,233.28316,650.4548,233.24104,648.081C233.20638,646.12994,230.54237,638.98865,227.433,632.4082C225.57527,628.53784,222.62386,621.6944,222.44685,620.8844C222.30135,620.25653,222.30963,619.96747,222.43114,619.9657L222.43335,619.9657C222.69647,619.9694,223.47755,621.2891,224.37843,623.41974C225.12563,625.1955,225.93947,627.0676,226.1769,627.6164C228.7093,632.8409,232.54543,641.88055,233.47652,644.85657C234.06105,646.6352,234.20906,647.6409,234.06721,648.81445L233.86732,650.37933L235.10878,650.68256C235.55148,650.7966,235.96075,650.8545,236.34514,650.8545C237.29424,650.8545,238.09157,650.5016,238.86574,649.77014C240.14447,648.5114,240.2428,646.72064,239.23512,643.0954C238.78297,641.4445,238.18916,639.1456,237.97328,637.97845C237.72487,636.8119,237.2419,635.2591,236.90346,634.51697C236.56502,633.77484,236.08376,632.31964,235.87025,631.2826C235.62294,630.181,234.23433,627.083,232.54958,623.7951C229.21602,617.4138,229.31526,617.50964,222.87202,613.6882C220.60353,612.32983,217.38045,610.33777,215.70125,609.1966C209.97395,605.39496,208.99263,605.0871,197.90616,603.56C195.4229,603.22144,193.31021,603.0353,191.29944,603.0353C186.8152,603.0353,182.83774,603.96106,176.38708,606.1866C168.9845,608.7901,161.79504,610.5767,155.17596,611.5074C153.66016,611.7131,149.9125,611.82086,146.31383,611.82086C143.36435,611.82086,140.51494,611.7485,139.07645,611.5982C138.55502,611.5424,137.05692,611.4389,135.7864,611.33136C129.85959,610.94867,89.38261,604.739,84.61144,603.4902C79.69428,602.1923,76.12692,601.45306,74.601585,601.45306C74.51501,601.45306,74.43501,601.45544,74.36172,601.46027C74.3437,601.4606,74.325455,601.46075,74.30701,601.46075C73.69284,601.46075,72.84908,601.2853,72.40319,601.0722C71.94332,600.8201,70.174706,600.1359,68.537285,599.51447L65.49294,598.43005 Z"/> </g> <g style="fill:rgb(91,89,88); fill-opacity:1.0; stroke-linejoin: miter"> <path d="M273.73868,644.4669L272.5883,645.62573C271.53366,646.68536,271.24277,646.7881,268.83932,646.99347C268.0674,647.06824,267.51144,647.1168,267.0386,647.1168C265.9998,647.1168,265.3623,646.8821,263.71793,646.17365L261.16202,645.1131L261.18338,646.3162C261.20126,647.3243,261.0433,647.5873,260.10953,648.12427C259.50015,648.46844,258.54892,648.6317,257.49323,648.6317C255.87088,648.6317,254.00186,648.24615,252.7479,647.53937C251.74403,646.98175,251.18846,646.79474,249.99539,646.79474C249.70482,646.79474,249.37643,646.80585,248.99454,646.8254C246.29736,646.9709,241.0719,647.61664,240.68634,647.8837C240.52545,647.98413,240.40234,648.3767,240.40979,648.79944C240.43764,650.3665,238.27748,651.61566,236.07011,651.61566C235.52924,651.61566,234.98552,651.54065,234.47047,651.37695C234.01398,651.2386,233.70381,651.17017,233.45976,651.17017C233.16185,651.17017,232.96248,651.2721,232.71571,651.47314C231.62666,652.4284,228.0904,653.42706,226.16304,653.42706C225.87984,653.42706,225.63136,653.4055,225.4305,653.3591C224.90791,653.2382,224.34303,652.5651,223.60164,651.11456C222.99611,649.9868,222.52242,648.9544,222.5201,648.82434C222.51968,648.80035,222.43402,648.6095,222.2791,648.28455L222.27687,648.28455L218.71782,649.08954L218.72002,649.08954C218.83997,650.2952,218.63309,651.08344,218.18513,651.9914C217.46321,653.46796,215.27223,654.6454,213.22365,654.68176C213.19289,654.6823,213.16197,654.68256,213.1309,654.68256C211.06046,654.68256,208.33543,653.47687,206.96262,651.96295L206.00113,650.9392L202.98569,651.48065C201.33194,651.7702,197.56741,652.2599,194.61295,652.5726C190.16559,653.07446,185.13525,653.71674,177.73856,654.82385C177.12192,654.8999,174.78471,655.16907,172.54448,655.40405C170.3043,655.639,165.56543,656.2111,161.99658,656.7298C158.42719,657.21606,154.17548,657.74695,152.55139,657.87335C150.9278,658.0323,149.43542,658.25397,149.24269,658.3875C149.04933,658.4885,148.8658,659.1424,148.81282,659.82635L148.73726,661.0638L151.03076,661.9989C152.30878,662.5292,154.37177,663.3057,155.61554,663.739C156.89178,664.1717,158.65985,664.82336,159.54535,665.2305C160.4627,665.60455,162.46075,666.3823,163.99884,666.908L166.84692,667.93085L167.1427,671.7638L167.43903,675.62933L169.23149,675.8252C169.40817,675.8448,169.66423,675.85406,169.98631,675.85406C171.50607,675.85406,174.49564,675.648,177.55008,675.3522C181.15378,674.9629,184.98502,674.56964,186.05698,674.48553C187.12833,674.3689,189.33603,674.1345,190.92648,673.94366C192.54941,673.75226,198.2319,673.1959,203.59091,672.7429C208.9499,672.29,213.56105,671.85034,213.81941,671.7481C214.23988,671.6106,218.4944,671.24225,227.45879,670.4975C228.9854,670.3728,232.19994,670.0555,234.60161,669.7526C237.00328,669.44977,241.77702,669.0072,245.1553,668.7521C248.56613,668.4963,252.49557,668.1338,253.92343,667.94586C257.5579,667.45844,260.93503,667.13824,268.86124,666.5421C272.01193,666.29095,273.5054,666.13434,275.84085,665.76764C276.4569,665.65906,280.1912,665.3,284.1212,664.97C288.0837,664.6394,292.82376,664.1324,294.67258,663.83936C296.55392,663.5457,298.88998,663.2115,299.8632,663.0641C300.837,662.9492,302.0048,662.76587,302.45883,662.6927C302.91293,662.6196,304.43832,662.4299,305.8674,662.30695C309.3096,661.9856,309.73178,661.94556,321.93225,660.26514C327.74017,659.4465,334.74948,658.5087,337.50815,658.167C346.4332,657.0327,345.72067,657.20795,346.1528,655.89923C346.70694,654.1329,346.59805,651.66266,345.86188,650.5049C345.32886,649.6406,342.82147,648.1677,341.93097,648.1677C341.92627,648.1677,341.92163,648.1678,341.91705,648.16785L341.91498,648.16785C341.74652,648.16785,340.80087,647.82794,339.78906,647.39246C337.888,646.58044,337.41895,645.80817,338.68182,645.493C339.1465,645.38104,339.2597,645.3309,339.09995,645.3305L339.09656,645.3305C338.44037,645.3319,333.40063,646.1338,329.0473,646.9651C321.59143,648.3986,318.09225,649.1764,307.3079,651.83997C300.2018,653.59235,299.53586,653.7527,295.91373,653.7527C295.6235,653.7527,295.31433,653.75165,294.98135,653.7503C294.91998,653.75037,294.85928,653.7504,294.79932,653.7504C291.0137,653.7504,289.9974,653.5994,287.6476,652.90466C282.97052,651.45905,278.63614,649.1615,276.0222,646.6707L273.73868,644.4669 Z"/> </g> <g style="fill:rgb(189,181,177); fill-opacity:1.0; stroke-linejoin: miter"> <path d="M445.30988,656.643C444.56543,656.8514,441.82166,658.0386,439.2092,659.28845C437.5647,660.0985,435.88647,660.84393,425.43283,665.64844C423.1746,666.6969,420.6578,667.84753,419.8193,668.25275C418.40012,668.92847,416.27066,669.9096,406.3978,674.44354C404.13943,675.492,401.59024,676.6432,400.75168,677.0484C396.78326,678.87537,393.88037,680.26056,392.39673,680.97C390.84857,681.7131,389.8161,682.18677,387.4585,683.13947C386.8772,683.37744,386.45862,683.61255,386.49164,683.64453C386.6571,683.8042,396.263,684.38184,403.19614,684.64905C404.9863,684.7148,407.98196,684.8893,409.87082,685.0184C411.75974,685.1475,414.52774,685.32605,416.05777,685.3965C417.58786,685.46686,420.51846,685.6425,422.56992,685.76874C424.62143,685.89496,427.42197,686.07294,428.75687,686.14685C438.88306,686.71515,453.01453,687.5376,454.5777,687.63995C455.5874,687.7196,457.3457,687.8185,458.48547,687.8958C459.59283,687.97375,462.49207,688.21497,464.903,688.43243C467.31384,688.64984,474.21793,689.11273,480.2092,689.46173C486.20047,689.8108,491.99606,690.13074,493.0709,690.2092C511.30762,691.41406,516.9222,690.6965,520.91693,686.68964C522.41925,685.1992,526.2074,680.5456,526.9978,679.26294C527.9776,677.6517,528.255,673.1254,527.63,669.07056L527.1119,665.53424L524.17896,665.2286C522.5821,665.0617,520.2351,664.7781,518.9635,664.6055C517.72437,664.4324,515.0847,664.15393,513.09766,663.9941C511.14313,663.83356,507.91644,663.468,505.9265,663.14557C501.94727,662.53314,501.97986,662.5326,494.35403,661.7247C491.38864,661.41956,486.69577,660.91736,483.92545,660.60876C481.15512,660.30023,478.1566,659.9631,477.24442,659.8817C476.36465,659.79974,472.8436,659.34186,469.45255,658.8816C462.57233,657.93036,448.03668,656.3344,446.76965,656.42194C446.31506,656.4625,445.66638,656.5716,445.30988,656.643 Z"/> </g> <g style="fill:rgb(0,0,0); fill-opacity:1.0; stroke-linejoin: miter"> <path d="M407.87033,685.9322C408.0997,686.0257,408.3918,685.988,408.48758,685.8887C408.61594,685.7888,408.4191,685.69476,408.06198,685.7336C407.7043,685.7399,407.6085,685.8393,407.87033,685.9322 Z"/> </g> </g> </svg>