<?xml version="1.0" standalone="no"?>
<!DOCTYPE svg PUBLIC "-//W3C//DTD SVG 20010904//EN"
 "http://www.w3.org/TR/2001/REC-SVG-20010904/DTD/svg10.dtd">
<svg version="1.0" xmlns="http://www.w3.org/2000/svg"
 width="428.000000pt" height="170.000000pt" viewBox="0 0 428.000000 170.000000"
 preserveAspectRatio="xMidYMid meet">
<metadata>
Created by potrace 1.16, written by Peter Selinger 2001-2019
</metadata>
<g transform="translate(0.000000,170.000000) scale(0.100000,-0.100000)"
fill="#000000" stroke="none">
<path d="M1800 1185 l0 -295 45 0 45 0 0 130 0 131 128 -3 127 -3 3 -127 3
-128 39 0 40 0 0 295 0 295 -40 0 -40 0 0 -125 0 -125 -130 0 -130 0 0 125 0
125 -45 0 -45 0 0 -295z"/>
<path d="M2310 1185 l0 -295 215 0 215 0 0 295 0 295 -215 0 -215 0 0 -295z
m348 3 l-3 -213 -127 -3 -128 -3 0 216 0 215 130 0 130 0 -2 -212z"/>
<path d="M2830 1185 l0 -295 40 0 40 0 0 255 0 255 98 0 c98 0 98 0 130 -33
l32 -33 0 -222 0 -222 40 0 40 0 0 243 0 243 -53 52 -53 52 -157 0 -157 0 0
-295z"/>
<path d="M3340 1185 l0 -295 152 0 152 0 58 57 58 57 0 186 0 186 -53 52 -53
52 -157 0 -157 0 0 -295z m307 183 l33 -32 0 -150 0 -150 -32 -33 c-32 -33
-32 -33 -130 -33 l-98 0 0 215 0 215 97 0 c96 0 98 0 130 -32z"/>
<path d="M3850 1237 l0 -243 53 -52 53 -52 99 0 99 0 58 57 58 57 0 238 0 238
-40 0 -40 0 0 -223 0 -223 -33 -32 c-30 -29 -38 -32 -98 -32 -60 0 -67 2 -97
33 l-32 33 0 222 0 222 -40 0 -40 0 0 -243z"/>
<path d="M350 1025 l0 -325 170 0 170 0 0 -175 0 -175 325 0 325 0 0 330 0
330 -170 0 -170 0 0 170 0 170 -325 0 -325 0 0 -325z m571 -131 l-33 -37 37
-32 c35 -29 37 -33 24 -53 -18 -28 -20 -28 -54 8 -16 17 -34 30 -41 30 -6 0
-24 -16 -39 -36 l-28 -36 -20 21 -21 21 34 36 35 36 -39 34 c-38 33 -39 34
-21 54 19 20 19 20 50 -10 17 -16 36 -30 42 -30 7 0 24 16 39 36 27 35 27 35
47 15 20 -20 20 -20 -12 -57z"/>
<path d="M2155 568 c-32 -17 -45 -39 -45 -78 0 -50 23 -77 88 -106 31 -14 64
-32 74 -41 26 -24 22 -58 -9 -83 -23 -18 -37 -21 -78 -17 -27 3 -58 8 -67 12
-14 5 -18 2 -18 -13 0 -24 25 -32 100 -32 74 0 116 26 126 76 10 55 -10 84
-82 119 -80 39 -94 52 -94 86 0 46 39 65 103 52 50 -10 66 -6 67 18 0 20 -132
25 -165 7z"/>
<path d="M2410 395 l0 -185 100 0 c93 0 100 1 100 20 0 18 -7 20 -80 20 l-80
0 0 70 0 70 75 0 c60 0 75 3 75 15 0 12 -15 15 -75 15 l-75 0 0 60 0 60 80 0
c73 0 80 2 80 20 0 19 -7 20 -100 20 l-100 0 0 -185z"/>
<path d="M2726 413 c-36 -93 -68 -176 -72 -185 -4 -13 -1 -18 14 -18 15 0 25
14 42 60 l23 61 75 -3 76 -3 22 -55 c16 -41 28 -56 44 -58 12 -2 21 0 19 6
-135 342 -143 362 -160 362 -13 0 -33 -41 -83 -167z"/>
<path d="M3027 574 c-4 -4 -7 -88 -7 -186 1 -169 3 -178 21 -178 17 0 19 8 19
74 0 79 3 84 54 82 26 -1 35 -11 75 -78 36 -63 50 -78 69 -78 l24 0 -23 38
c-13 20 -35 57 -50 82 l-28 44 29 18 c33 19 52 73 41 115 -12 46 -51 66 -138
71 -43 2 -82 0 -86 -4z m165 -51 c11 -10 18 -30 18 -54 0 -50 -27 -69 -97 -69
l-53 0 0 70 0 70 57 0 c38 0 62 -5 75 -17z"/>
<path d="M3410 558 c-59 -41 -75 -71 -78 -156 -5 -126 38 -182 148 -190 72 -5
110 3 110 24 0 12 -10 14 -57 9 -104 -11 -163 44 -163 150 0 66 26 115 75 139
33 17 46 18 89 9 37 -8 53 -8 58 1 14 20 -25 36 -87 36 -48 0 -70 -5 -95 -22z"/>
<path d="M3670 395 c0 -177 1 -185 20 -185 17 0 19 8 22 88 l3 87 95 0 95 0 3
-87 c3 -80 5 -88 22 -88 19 0 20 8 20 185 0 178 -1 185 -20 185 -18 0 -20 -7
-20 -80 l0 -80 -100 0 -100 0 0 80 c0 73 -2 80 -20 80 -19 0 -20 -7 -20 -185z"/>
</g>
</svg>
